<mxfile host="app.diagrams.net" modified="2022-11-02T18:13:01.997Z" agent="5.0 (Windows NT 10.0; Win64; x64) AppleWebKit/537.36 (KHTML, like Gecko) Chrome/106.0.0.0 Safari/537.36" etag="PtPk3SacktYHOi6t6Nw-" version="20.5.1" type="github">
  <diagram id="z_Ukc-qnUTp6BKivxAp7" name="Page-1">
    <mxGraphModel dx="1467" dy="796" grid="1" gridSize="10" guides="1" tooltips="1" connect="1" arrows="1" fold="1" page="1" pageScale="1" pageWidth="1169" pageHeight="827" math="0" shadow="0">
      <root>
        <mxCell id="0" />
        <mxCell id="1" parent="0" />
        <mxCell id="CkBX9_-azZwYhOsEuEUJ-1" value="" style="endArrow=none;html=1;strokeWidth=3;strokeColor=#CCCCCC;labelBackgroundColor=none;fontSize=16;rounded=0;startArrow=none;" edge="1" source="CkBX9_-azZwYhOsEuEUJ-3" parent="1">
          <mxGeometry relative="1" as="geometry">
            <mxPoint x="580" y="480" as="targetPoint" />
          </mxGeometry>
        </mxCell>
        <mxCell id="CkBX9_-azZwYhOsEuEUJ-2" value="" style="ellipse;whiteSpace=wrap;html=1;aspect=fixed;shadow=0;fillColor=none;strokeColor=#333333;fontSize=16;align=center;strokeWidth=2;" vertex="1" parent="1">
          <mxGeometry x="574" y="90" width="12" height="12" as="geometry" />
        </mxCell>
        <mxCell id="CkBX9_-azZwYhOsEuEUJ-4" value="" style="verticalLabelPosition=middle;verticalAlign=middle;html=1;shape=mxgraph.infographic.circularCallout2;dy=15;strokeColor=#10739E;labelPosition=center;align=center;fontColor=#10739E;fontStyle=1;fontSize=24;shadow=0;direction=north;" vertex="1" parent="1">
          <mxGeometry x="340" y="120" width="246" height="60" as="geometry" />
        </mxCell>
        <mxCell id="CkBX9_-azZwYhOsEuEUJ-5" value="" style="verticalLabelPosition=middle;verticalAlign=middle;html=1;shape=mxgraph.infographic.circularCallout2;dy=15;strokeColor=#F2931E;labelPosition=center;align=center;fontColor=#F2931E;fontStyle=1;fontSize=24;shadow=0;direction=north;flipH=1;" vertex="1" parent="1">
          <mxGeometry x="574" y="190" width="246" height="60" as="geometry" />
        </mxCell>
        <mxCell id="CkBX9_-azZwYhOsEuEUJ-6" value="" style="verticalLabelPosition=middle;verticalAlign=middle;html=1;shape=mxgraph.infographic.circularCallout2;dy=15;strokeColor=#AE4132;labelPosition=center;align=center;fontColor=#10739E;fontStyle=1;fontSize=24;shadow=0;direction=north;" vertex="1" parent="1">
          <mxGeometry x="340" y="260" width="246" height="60" as="geometry" />
        </mxCell>
        <mxCell id="CkBX9_-azZwYhOsEuEUJ-7" value="" style="verticalLabelPosition=middle;verticalAlign=middle;html=1;shape=mxgraph.infographic.circularCallout2;dy=15;strokeColor=#23445D;labelPosition=center;align=center;fontColor=#10739E;fontStyle=1;fontSize=24;shadow=0;direction=north;flipH=1;" vertex="1" parent="1">
          <mxGeometry x="574" y="330" width="246" height="60" as="geometry" />
        </mxCell>
        <mxCell id="CkBX9_-azZwYhOsEuEUJ-10" value="AE 1" style="fillColor=#10739E;strokecolor=none;rounded=1;fontColor=#FFFFFF;strokeColor=none;fontStyle=1;fontSize=14;" vertex="1" parent="1">
          <mxGeometry x="410" y="110" width="160" height="30" as="geometry" />
        </mxCell>
        <mxCell id="CkBX9_-azZwYhOsEuEUJ-11" value="AE 2" style="fillColor=#F2931E;strokecolor=none;rounded=1;fontColor=#FFFFFF;strokeColor=none;fontStyle=1;fontSize=14;" vertex="1" parent="1">
          <mxGeometry x="590" y="175" width="160" height="30" as="geometry" />
        </mxCell>
        <mxCell id="CkBX9_-azZwYhOsEuEUJ-12" value="AE 3" style="fillColor=#AE4132;strokecolor=none;rounded=1;fontColor=#FFFFFF;strokeColor=none;fontStyle=1;fontSize=14;" vertex="1" parent="1">
          <mxGeometry x="410" y="250" width="160" height="30" as="geometry" />
        </mxCell>
        <mxCell id="CkBX9_-azZwYhOsEuEUJ-13" value="AE 4" style="fillColor=#23445D;strokecolor=none;rounded=1;fontColor=#FFFFFF;strokeColor=none;fontStyle=1;fontSize=14;" vertex="1" parent="1">
          <mxGeometry x="590" y="315" width="160" height="30" as="geometry" />
        </mxCell>
        <mxCell id="CkBX9_-azZwYhOsEuEUJ-16" value="&lt;font&gt;&lt;span style=&quot;&quot;&gt;Loss function: MSE&lt;br&gt;&lt;/span&gt;&lt;br&gt;Activation function: ReLu&lt;/font&gt;" style="rounded=1;strokeColor=none;fillColor=#EEEEEE;align=center;arcSize=12;verticalAlign=top;whiteSpace=wrap;html=1;fontSize=12;fontColor=#3F5370;fontStyle=1" vertex="1" parent="1">
          <mxGeometry x="410" y="160" width="160" height="70" as="geometry" />
        </mxCell>
        <mxCell id="CkBX9_-azZwYhOsEuEUJ-3" value="" style="ellipse;whiteSpace=wrap;html=1;aspect=fixed;shadow=0;fillColor=none;strokeColor=#333333;fontSize=16;align=center;strokeWidth=2;" vertex="1" parent="1">
          <mxGeometry x="573" y="470" width="12" height="12" as="geometry" />
        </mxCell>
        <mxCell id="CkBX9_-azZwYhOsEuEUJ-23" value="" style="endArrow=none;html=1;strokeWidth=3;strokeColor=#CCCCCC;labelBackgroundColor=none;fontSize=16;rounded=0;entryX=0.5;entryY=0;entryDx=0;entryDy=0;" edge="1" parent="1" source="CkBX9_-azZwYhOsEuEUJ-2" target="CkBX9_-azZwYhOsEuEUJ-3">
          <mxGeometry relative="1" as="geometry">
            <mxPoint x="580" y="102" as="sourcePoint" />
            <mxPoint x="580" y="450" as="targetPoint" />
          </mxGeometry>
        </mxCell>
        <mxCell id="CkBX9_-azZwYhOsEuEUJ-24" value="&lt;font&gt;&lt;span style=&quot;&quot;&gt;Loss function: MSE&lt;br&gt;&lt;/span&gt;&lt;br&gt;Activation function: Tanh&lt;/font&gt;" style="rounded=1;strokeColor=none;fillColor=#EEEEEE;align=center;arcSize=12;verticalAlign=top;whiteSpace=wrap;html=1;fontSize=12;fontColor=#3F5370;fontStyle=1" vertex="1" parent="1">
          <mxGeometry x="410" y="300" width="160" height="70" as="geometry" />
        </mxCell>
        <mxCell id="CkBX9_-azZwYhOsEuEUJ-25" value="&lt;font&gt;&lt;span style=&quot;&quot;&gt;Loss function: CrossEntropy&lt;br&gt;&lt;/span&gt;&lt;br&gt;Activation function: ReLu&lt;/font&gt;" style="rounded=1;strokeColor=none;fillColor=#EEEEEE;align=center;arcSize=12;verticalAlign=top;whiteSpace=wrap;html=1;fontSize=12;fontColor=#3F5370;fontStyle=1" vertex="1" parent="1">
          <mxGeometry x="590" y="230" width="160" height="70" as="geometry" />
        </mxCell>
        <mxCell id="CkBX9_-azZwYhOsEuEUJ-26" value="&lt;font&gt;&lt;span style=&quot;&quot;&gt;Loss function: CrossEntropy&lt;br&gt;&lt;/span&gt;&lt;br&gt;Activation function: Tanh&lt;/font&gt;" style="rounded=1;strokeColor=none;fillColor=#EEEEEE;align=center;arcSize=12;verticalAlign=top;whiteSpace=wrap;html=1;fontSize=12;fontColor=#3F5370;fontStyle=1" vertex="1" parent="1">
          <mxGeometry x="590" y="370" width="160" height="70" as="geometry" />
        </mxCell>
      </root>
    </mxGraphModel>
  </diagram>
</mxfile>
